<svg xmlns="http://www.w3.org/2000/svg" viewBox="40 40 420 508">
<defs>
<clipPath id="whitewolf-blk"><path d="M40.6,39L59.1,38.7L76.1,39.6L94.4,39.5L114.1,40.8L132.1,41.3L150.4,39.2L167,39.7L186.1,38.8L203.9,41.2L223,38.9L240.8,41.1L259.3,39.7L278.2,38.8L294.7,39.3L312.6,41L332.4,40.2L351,40.2L368.4,39.4L387.5,39.6L404.7,40.6L424.3,40L442.9,39.7L459.6,39.1L460.1,58.6L460.9,77.3L460.5,95.3L459.4,112.6L460.7,130.4L460.1,149.5L460.7,166L458.8,186.1L460.2,203L459.2,221.6L460,240.4L460.9,257L459.4,275.2L460.7,293.5L459.2,312L459.5,330.5L460,347.9L459.6,365.7L459.1,383.5L459.1,403.7L460.3,419.8L458.8,438.1L460.1,458L459.3,475.4L460.5,494.7L460.4,511.1L458.9,528.7L461.2,547.9L440.6,548.3L423.5,547.3L404.2,547.4L387.6,547.6L369.6,547.8L349.6,547.5L333.3,548.8L313.8,547.6L295.1,547.5L277.8,546.8L258.4,548.9L240.7,547.5L223.1,548.9L204.4,546.9L185.2,549.1L168.8,548.6L149.9,548.2L130.3,547.4L113.1,547.4L94.6,549.3L76.2,548.1L59.3,547.7L39.6,547.6L39.5,529.4L39.6,512.2L39,493.5L40.3,475.2L40.7,457.2L40.3,438.6L39.9,421.3L39.8,402.3L40.8,384L40.8,365.7L40.3,347.6L40.8,330.2L38.9,312.6L41,295.2L39.8,276.7L40.7,257.4L40.9,238.6L38.8,221.4L40.6,203.9L39.3,185.9L40.1,167.7L40.4,148.5L41.3,129.5L40.4,113.4L38.9,93.5L39.9,76.7L39.8,57.2Z"/></clipPath>
<filter id="whitewolf-ink" x="0" y="0" width="100%" height="100%"><feTurbulence type="fractalNoise" baseFrequency="1.4" numOctaves="2" seed="3" result="n"/><feColorMatrix in="n" type="matrix" values="0 0 0 0 0  0 0 0 0 0  0 0 0 0 0  0 0 0 -0.9 1.32" result="m"/><feComposite in="SourceGraphic" in2="m" operator="in"/></filter>
<filter id="whitewolf-paper" x="0" y="0" width="100%" height="100%"><feTurbulence type="fractalNoise" baseFrequency="0.75" numOctaves="3" seed="9"/><feColorMatrix values="0 0 0 0 0.4  0 0 0 0 0.3  0 0 0 0 0.2  0 0 0 0.16 0"/><feComposite in2="SourceGraphic" operator="in"/></filter>
</defs>
<rect x="0" y="0" width="500" height="700" fill="#f1e8d4"/>
<g filter="url(#whitewolf-ink)"><g clip-path="url(#whitewolf-blk)"><rect x="0" y="0" width="500" height="700" fill="#1f2668"/><mask id="whitewolf-sky"><rect width="500" height="700" fill="#fff"/><circle cx="104" cy="102" r="70" fill="#000"/></mask><path mask="url(#whitewolf-sky)" fill="#f1e8d4" d="M30,52.2C170,51 330,50.7 470,51.8C330,53 170,53.3 30,52.2ZM30,61.1C170,59.9 330,59.7 470,60.9C330,62.1 170,62.3 30,61.1ZM30,70.5C170,69.3 330,68.3 470,69.5C330,70.7 170,71.7 30,70.5ZM30,79.8C170,78.5 330,77 470,78.2C330,79.5 170,81 30,79.8ZM30,88C170,86.7 330,86.7 470,88C330,89.3 170,89.3 30,88ZM30,97.7C170,96.3 330,95 470,96.3C330,97.7 170,99 30,97.7ZM30,105.9C170,104.6 330,104.7 470,106.1C330,107.4 170,107.3 30,105.9ZM30,115.3C170,114 330,113.4 470,114.7C330,116 170,116.6 30,115.3ZM30,124C170,122.7 330,122.7 470,124C330,125.3 170,125.3 30,124ZM30,132.3C170,131.1 330,132.4 470,133.7C330,134.9 170,133.6 30,132.3ZM30,142.3C170,141.1 330,140.5 470,141.7C330,142.9 170,143.5 30,142.3ZM30,151.6C170,150.5 330,149.2 470,150.4C330,151.5 170,152.8 30,151.6ZM30,160.5C170,159.4 330,158.3 470,159.5C330,160.6 170,161.7 30,160.5ZM30,169.5C170,168.4 330,167.4 470,168.5C330,169.6 170,170.6 30,169.5ZM30,177.2C170,176.2 330,177.7 470,178.8C330,179.8 170,178.3 30,177.2ZM30,187C170,186 330,185.9 470,187C330,188 170,188.1 30,187ZM30,196C170,195 330,195 470,196C330,197 170,197 30,196ZM30,204.9C170,204 330,204.1 470,205.1C330,206 170,205.9 30,204.9ZM30,214C170,213.1 330,213 470,214C330,214.9 170,215 30,214ZM30,223.2C170,222.3 330,221.9 470,222.8C330,223.7 170,224.1 30,223.2ZM30,232.2C170,231.3 330,230.9 470,231.8C330,232.7 170,233.1 30,232.2ZM30,241.1C170,240.3 330,240.1 470,240.9C330,241.7 170,241.9 30,241.1ZM30,250.6C170,249.8 330,248.6 470,249.4C330,250.2 170,251.4 30,250.6ZM30,258.6C170,257.8 330,258.7 470,259.4C330,260.2 170,259.3 30,258.6ZM30,267.4C170,266.7 330,267.9 470,268.6C330,269.3 170,268.1 30,267.4ZM30,276.3C170,275.6 330,277 470,277.7C330,278.4 170,277 30,276.3ZM30,285.3C170,284.7 330,286 470,286.7C330,287.3 170,286 30,285.3ZM30,294.5C170,293.8 330,294.9 470,295.5C330,296.2 170,295.1 30,294.5ZM30,304C170,303.4 330,303.4 470,304C330,304.6 170,304.6 30,304ZM30,312.7C170,312.2 330,312.7 470,313.3C330,313.8 170,313.3 30,312.7ZM30,321.9C170,321.3 330,321.6 470,322.1C330,322.7 170,322.4 30,321.9ZM30,331C170,330.5 330,330.5 470,331C330,331.5 170,331.5 30,331ZM30,340.5C170,340 330,339 470,339.5C330,340 170,341 30,340.5ZM30,349.5C170,349.1 330,348 470,348.5C330,348.9 170,350 30,349.5ZM30,358.6C170,358.2 330,357 470,357.4C330,357.8 170,359 30,358.6ZM30,366.6C170,366.3 330,367 470,367.4C330,367.7 170,367 30,366.6ZM30,376.1C170,375.7 330,375.6 470,375.9C330,376.3 170,376.4 30,376.1ZM30,385.6C170,385.3 330,384.1 470,384.4C330,384.7 170,385.9 30,385.6ZM30,393.5C170,393.2 330,394.2 470,394.5C330,394.8 170,393.8 30,393.5ZM30,403.8C170,403.5 330,402 470,402.2C330,402.5 170,404 30,403.8ZM30,412C170,411.8 330,411.7 470,412C330,412.2 170,412.3 30,412ZM30,420.3C170,420 330,421.5 470,421.7C330,422 170,420.5 30,420.3ZM30,429.8C170,429.5 330,430 470,430.2C330,430.5 170,430 30,429.8ZM30,438.8C170,438.6 330,438.9 470,439.2C330,439.4 170,439.1 30,438.8ZM30,447.8C170,447.6 330,447.9 470,448.2C330,448.4 170,448.1 30,447.8ZM30,457.2C170,456.9 330,456.6 470,456.8C330,457.1 170,457.4 30,457.2ZM30,466.6C170,466.3 330,465.2 470,465.4C330,465.7 170,466.8 30,466.6ZM30,475C170,474.8 330,474.7 470,475C330,475.2 170,475.3 30,475ZM30,484.3C170,484.1 330,483.4 470,483.7C330,483.9 170,484.6 30,484.3ZM30,493.4C170,493.1 330,492.4 470,492.6C330,492.9 170,493.6 30,493.4Z"/><circle cx="104" cy="102" r="54" fill="none" stroke="#f1e8d4" stroke-width="2.6" stroke-dasharray="18 6"/><circle cx="104" cy="102" r="63" fill="none" stroke="#f1e8d4" stroke-width="2.1" stroke-dasharray="27 8"/><circle cx="104" cy="102" r="72" fill="none" stroke="#f1e8d4" stroke-width="1.6" stroke-dasharray="36 10"/><circle cx="104" cy="102" r="81" fill="none" stroke="#f1e8d4" stroke-width="1.1" stroke-dasharray="45 12"/><path d="M255.9,91.1L258.4,97.7L265,100.2L258.4,102.8L255.9,109.3L253.3,102.8L246.7,100.2L253.3,97.7ZM220.1,96.3L222.1,101.4L227.1,103.3L222.1,105.3L220.1,110.4L218.1,105.3L213,103.3L218.1,101.4ZM386.5,67.6L388.1,71.9L392.3,73.5L388.1,75.2L386.5,79.4L384.8,75.2L380.6,73.5L384.8,71.9ZM325.7,104.9L328.1,111L334.2,113.4L328.1,115.8L325.7,121.9L323.4,115.8L317.3,113.4L323.4,111ZM370.5,210.8L372.8,216.7L378.7,219.1L372.8,221.4L370.5,227.3L368.1,221.4L362.2,219.1L368.1,216.7ZM267.3,58.6L269.2,63.5L274,65.3L269.2,67.2L267.3,72L265.4,67.2L260.6,65.3L265.4,63.5ZM298.1,219.3L299.8,223.5L304.1,225.2L299.8,226.9L298.1,231.2L296.5,226.9L292.2,225.2L296.5,223.5ZM277.8,146.4L280.3,152.9L286.9,155.5L280.3,158L277.8,164.6L275.2,158L268.7,155.5L275.2,152.9ZM367.8,96.6L369.6,101.2L374.2,102.9L369.6,104.7L367.8,109.3L366.1,104.7L361.5,102.9L366.1,101.2Z" fill="#f1e8d4"/><mask id="whitewolf-moon-b"><circle cx="104" cy="102" r="44" fill="#fff"/><circle cx="119" cy="95" r="42" fill="#000"/></mask><rect mask="url(#whitewolf-moon-b)" x="60" y="58" width="88" height="88" fill="#f1e8d4"/><path d="M30,560L30,520C70,508 110,500 150,496L184,478L240,474L300,480L360,474L420,470L470,476L470,560Z" fill="#1f2668" stroke="#f1e8d4" stroke-width="3.6" stroke-linejoin="round"/><path d="M184,486C184,486 194.8,499.6 196,512C197.2,524.4 190,548 190,548" fill="none" stroke="#f1e8d4" stroke-width="2.6" stroke-linecap="round"/><path d="M300,488C300,488 310.8,508 312,520C313.2,532 306,548 306,548" fill="none" stroke="#f1e8d4" stroke-width="2.6" stroke-linecap="round"/><path d="M420,480C420,480 410.4,502.4 410,516C409.6,529.6 418,548 418,548" fill="none" stroke="#f1e8d4" stroke-width="2.6" stroke-linecap="round"/><path d="M100,512C100,512 118,530 118,530" fill="none" stroke="#f1e8d4" stroke-width="2.6" stroke-linecap="round"/><path d="M250,494C250,494 270,506 270,506" fill="none" stroke="#f1e8d4" stroke-width="2.6" stroke-linecap="round"/><path d="M360,486C360,486 380,500 380,500" fill="none" stroke="#f1e8d4" stroke-width="2.6" stroke-linecap="round"/><path d="M262,352C267.2,342 284,340.4 290,350C296,359.6 290.4,382 292,400C293.6,418 295.2,427.2 298,440C300.8,452.8 304.8,456.8 306,464C307.2,471.2 304,476 304,476C304,476 272,476 272,476C272,476 276.4,470 276,462C275.6,454 272.4,448.4 270,436C267.6,423.6 265.6,416.8 264,400C262.4,383.2 256.8,362 262,352ZM330,340C337.6,332 364.8,340.8 372,352C379.2,363.2 370.8,380.4 366,396C361.2,411.6 352,416.8 348,430C344,443.2 345.2,452.8 346,462C346.8,471.2 352,476 352,476C352,476 318,476 318,476C318,476 322.8,470.4 324,460C325.2,449.6 322,437.6 324,424C326,410.4 332.8,408.8 334,392C335.2,375.2 322.4,348 330,340Z" fill="#f1e8d4" stroke="#1f2668" stroke-width="10" stroke-linejoin="round"/><path d="M262,352C267.2,342 284,340.4 290,350C296,359.6 290.4,382 292,400C293.6,418 295.2,427.2 298,440C300.8,452.8 304.8,456.8 306,464C307.2,471.2 304,476 304,476C304,476 272,476 272,476C272,476 276.4,470 276,462C275.6,454 272.4,448.4 270,436C267.6,423.6 265.6,416.8 264,400C262.4,383.2 256.8,362 262,352ZM330,340C337.6,332 364.8,340.8 372,352C379.2,363.2 370.8,380.4 366,396C361.2,411.6 352,416.8 348,430C344,443.2 345.2,452.8 346,462C346.8,471.2 352,476 352,476C352,476 318,476 318,476C318,476 322.8,470.4 324,460C325.2,449.6 322,437.6 324,424C326,410.4 332.8,408.8 334,392C335.2,375.2 322.4,348 330,340Z" fill="#f1e8d4"/><path d="M272,366C272,366 274.8,400 278,420C281.2,440 288,466 288,466" fill="none" stroke="#1f2668" stroke-width="2.4" stroke-linecap="round"/><path d="M350,364C350,364 347.2,390.4 344,410C340.8,429.6 334,462 334,462" fill="none" stroke="#1f2668" stroke-width="2.4" stroke-linecap="round"/><path d="M282,372C282,372 286,410 286,410" fill="none" stroke="#1f2668" stroke-width="2.4" stroke-linecap="round"/><path d="M360,370C360,370 354,400 354,400" fill="none" stroke="#1f2668" stroke-width="2.4" stroke-linecap="round"/><path d="M48,232C48,232 50.3,220.1 60,214C69.7,207.9 89.4,203 102,198C114.6,193 122.1,191 130,186C137.9,181 142,175.8 146,170C150,164.2 148.4,165.2 152,154C155.6,142.8 166,108 166,108C166,108 179.3,137.9 184,148C188.7,158.1 192,164 192,164C192,164 206,120 206,120C206,120 214.2,155 220,168C225.8,181 229,182.6 238,192C247,201.4 258.1,211.4 270,220C281.9,228.6 291,235 304,240C317,245 328,246.2 342,248C356,249.8 369,248.2 382,250C395,251.8 404.3,253 414,258C423.7,263 429.9,270.8 436,278C442.1,285.2 443.3,287.6 448,298C452.7,308.4 459.1,320.5 462,336C464.9,351.5 465.8,366.4 464,384C462.2,401.6 452,434 452,434C452,434 441.6,414.8 438,400C434.4,385.2 434.5,365.3 432,352C429.5,338.7 424.4,327.4 424,326C423.6,324.6 429.6,333.6 430,344C430.4,354.4 428.9,370.3 426,384C423.1,397.7 414,420 414,420C414,420 412.9,441.9 414,452C415.1,462.1 420,476 420,476C420,476 384,476 384,476C384,476 390.6,469.9 392,462C393.4,454.1 394.2,442.4 392,432C389.8,421.6 385.4,414.4 380,404C374.6,393.6 368.5,383 362,374C355.5,365 352.3,358.7 344,354C335.7,349.3 327.5,348.4 316,348C304.5,347.6 290.8,349.8 280,352C269.2,354.2 261,351.4 256,360C251,368.6 253.8,384.9 252,400C250.2,415.1 246.7,432.8 246,444C245.3,455.2 248.4,456.2 248,462C247.6,467.8 244,476 244,476C244,476 206,476 206,476C206,476 211.1,469.8 214,464C216.9,458.2 220.6,455.5 222,444C223.4,432.5 223.4,415.5 222,400C220.6,384.5 218,373.1 214,358C210,342.9 200,316 200,316C200,316 207.6,308.7 204,304C200.4,299.3 180,290 180,290C180,290 191.6,281.6 188,278C184.4,274.4 160,270 160,270C160,270 153.9,269.1 146,268C138.1,266.9 127.2,265.8 116,264C104.8,262.2 94.4,261.2 84,258C73.6,254.8 64.5,250.7 58,246C51.5,241.3 48,232 48,232Z" fill="#f1e8d4" stroke="#1f2668" stroke-width="12" stroke-linejoin="round"/><path d="M48,232C48,232 50.3,220.1 60,214C69.7,207.9 89.4,203 102,198C114.6,193 122.1,191 130,186C137.9,181 142,175.8 146,170C150,164.2 148.4,165.2 152,154C155.6,142.8 166,108 166,108C166,108 179.3,137.9 184,148C188.7,158.1 192,164 192,164C192,164 206,120 206,120C206,120 214.2,155 220,168C225.8,181 229,182.6 238,192C247,201.4 258.1,211.4 270,220C281.9,228.6 291,235 304,240C317,245 328,246.2 342,248C356,249.8 369,248.2 382,250C395,251.8 404.3,253 414,258C423.7,263 429.9,270.8 436,278C442.1,285.2 443.3,287.6 448,298C452.7,308.4 459.1,320.5 462,336C464.9,351.5 465.8,366.4 464,384C462.2,401.6 452,434 452,434C452,434 441.6,414.8 438,400C434.4,385.2 434.5,365.3 432,352C429.5,338.7 424.4,327.4 424,326C423.6,324.6 429.6,333.6 430,344C430.4,354.4 428.9,370.3 426,384C423.1,397.7 414,420 414,420C414,420 412.9,441.9 414,452C415.1,462.1 420,476 420,476C420,476 384,476 384,476C384,476 390.6,469.9 392,462C393.4,454.1 394.2,442.4 392,432C389.8,421.6 385.4,414.4 380,404C374.6,393.6 368.5,383 362,374C355.5,365 352.3,358.7 344,354C335.7,349.3 327.5,348.4 316,348C304.5,347.6 290.8,349.8 280,352C269.2,354.2 261,351.4 256,360C251,368.6 253.8,384.9 252,400C250.2,415.1 246.7,432.8 246,444C245.3,455.2 248.4,456.2 248,462C247.6,467.8 244,476 244,476C244,476 206,476 206,476C206,476 211.1,469.8 214,464C216.9,458.2 220.6,455.5 222,444C223.4,432.5 223.4,415.5 222,400C220.6,384.5 218,373.1 214,358C210,342.9 200,316 200,316C200,316 207.6,308.7 204,304C200.4,299.3 180,290 180,290C180,290 191.6,281.6 188,278C184.4,274.4 160,270 160,270C160,270 153.9,269.1 146,268C138.1,266.9 127.2,265.8 116,264C104.8,262.2 94.4,261.2 84,258C73.6,254.8 64.5,250.7 58,246C51.5,241.3 48,232 48,232Z" fill="#f1e8d4"/><clipPath id="whitewolf-body"><path d="M48,232C48,232 50.3,220.1 60,214C69.7,207.9 89.4,203 102,198C114.6,193 122.1,191 130,186C137.9,181 142,175.8 146,170C150,164.2 148.4,165.2 152,154C155.6,142.8 166,108 166,108C166,108 179.3,137.9 184,148C188.7,158.1 192,164 192,164C192,164 206,120 206,120C206,120 214.2,155 220,168C225.8,181 229,182.6 238,192C247,201.4 258.1,211.4 270,220C281.9,228.6 291,235 304,240C317,245 328,246.2 342,248C356,249.8 369,248.2 382,250C395,251.8 404.3,253 414,258C423.7,263 429.9,270.8 436,278C442.1,285.2 443.3,287.6 448,298C452.7,308.4 459.1,320.5 462,336C464.9,351.5 465.8,366.4 464,384C462.2,401.6 452,434 452,434C452,434 441.6,414.8 438,400C434.4,385.2 434.5,365.3 432,352C429.5,338.7 424.4,327.4 424,326C423.6,324.6 429.6,333.6 430,344C430.4,354.4 428.9,370.3 426,384C423.1,397.7 414,420 414,420C414,420 412.9,441.9 414,452C415.1,462.1 420,476 420,476C420,476 384,476 384,476C384,476 390.6,469.9 392,462C393.4,454.1 394.2,442.4 392,432C389.8,421.6 385.4,414.4 380,404C374.6,393.6 368.5,383 362,374C355.5,365 352.3,358.7 344,354C335.7,349.3 327.5,348.4 316,348C304.5,347.6 290.8,349.8 280,352C269.2,354.2 261,351.4 256,360C251,368.6 253.8,384.9 252,400C250.2,415.1 246.7,432.8 246,444C245.3,455.2 248.4,456.2 248,462C247.6,467.8 244,476 244,476C244,476 206,476 206,476C206,476 211.1,469.8 214,464C216.9,458.2 220.6,455.5 222,444C223.4,432.5 223.4,415.5 222,400C220.6,384.5 218,373.1 214,358C210,342.9 200,316 200,316C200,316 207.6,308.7 204,304C200.4,299.3 180,290 180,290C180,290 191.6,281.6 188,278C184.4,274.4 160,270 160,270C160,270 153.9,269.1 146,268C138.1,266.9 127.2,265.8 116,264C104.8,262.2 94.4,261.2 84,258C73.6,254.8 64.5,250.7 58,246C51.5,241.3 48,232 48,232Z"/></clipPath><g clip-path="url(#whitewolf-body)"><path d="M214,200C214,200 220.4,222 220,236C219.6,250 212,270 212,270" fill="none" stroke="#1f2668" stroke-width="2.6" stroke-linecap="round"/><path d="M236,210C236,210 245.2,234 246,250C246.8,266 240,290 240,290" fill="none" stroke="#1f2668" stroke-width="2.6" stroke-linecap="round"/><path d="M262,228C262,228 270,253.6 270,270C270,286.4 262,310 262,310" fill="none" stroke="#1f2668" stroke-width="2.6" stroke-linecap="round"/><path d="M288,246C288,246 294.4,269.2 294,286C293.6,302.8 286,330 286,330" fill="none" stroke="#1f2668" stroke-width="2.6" stroke-linecap="round"/><path d="M330,270C330,270 341.6,286.8 344,300C346.4,313.2 342,336 342,336" fill="none" stroke="#1f2668" stroke-width="2.6" stroke-linecap="round"/><path d="M364,268C364,268 374,283.6 380,296C386,308.4 394,330 394,330" fill="none" stroke="#1f2668" stroke-width="2.6" stroke-linecap="round"/><path d="M398,284C398,284 409.6,299.2 412,312C414.4,324.8 410,348 410,348" fill="none" stroke="#1f2668" stroke-width="2.6" stroke-linecap="round"/><path d="M440,310C440,310 448,332 450,350C452,368 450,400 450,400" fill="none" stroke="#1f2668" stroke-width="2.6" stroke-linecap="round"/><path d="M432,330C432,330 437.6,354 440,370C442.4,386 444,410 444,410" fill="none" stroke="#1f2668" stroke-width="2.6" stroke-linecap="round"/><path d="M234,380C234,380 235.2,412.8 234,430C232.8,447.2 228,466 228,466" fill="none" stroke="#1f2668" stroke-width="2.6" stroke-linecap="round"/><path d="M402,424C402,424 401.6,438.8 402,448C402.4,457.2 404,470 404,470" fill="none" stroke="#1f2668" stroke-width="2.6" stroke-linecap="round"/><path d="M376,384C376,384 394,412 394,412" fill="none" stroke="#1f2668" stroke-width="2.6" stroke-linecap="round"/><path d="M172,128C172,128 178,152 178,152" fill="none" stroke="#1f2668" stroke-width="2.6" stroke-linecap="round"/><path d="M72,244C72,244 90.8,240.8 104,242C117.2,243.2 138,250 138,250" fill="none" stroke="#1f2668" stroke-width="2.6" stroke-linecap="round"/></g><path d="M44,230C46,218 58,212 70,218C72,230 60,238 46,238Z" fill="#1f2668"/><path d="M110,214Q124,200 142,204Q130,218 110,214Z" fill="#f1e8d4" stroke="#1f2668" stroke-width="4" stroke-linejoin="round"/><circle cx="127" cy="209" r="3.4" fill="#1f2668"/><path d="M106,196C106,196 116.4,190.4 124,190C131.6,189.6 144,194 144,194" fill="none" stroke="#1f2668" stroke-width="3.4" stroke-linecap="round"/></g></g>
<g style="mix-blend-mode:multiply" transform="translate(3.5 2.5)" opacity="0.92" filter="url(#whitewolf-ink)"><g clip-path="url(#whitewolf-blk)"><mask id="whitewolf-moon-p"><circle cx="104" cy="102" r="44" fill="#fff"/><circle cx="119" cy="95" r="42" fill="#000"/></mask><rect mask="url(#whitewolf-moon-p)" x="60" y="58" width="88" height="88" fill="#ff4d9d"/><path d="M110,214Q124,200 142,204Q130,218 110,214Z" fill="#ff4d9d"/><path fill="#ff4d9d" d="M44.8,40a1.2,1.2 0 1 0 2.4,0a1.2,1.2 0 1 0 -2.4,0ZM51.7,40a1.3,1.3 0 1 0 2.6,0a1.3,1.3 0 1 0 -2.6,0ZM58.6,40a1.4,1.4 0 1 0 2.8,0a1.4,1.4 0 1 0 -2.8,0ZM65.5,40a1.5,1.5 0 1 0 3,0a1.5,1.5 0 1 0 -3,0ZM72.4,40a1.6,1.6 0 1 0 3.2,0a1.6,1.6 0 1 0 -3.2,0ZM79.3,40a1.7,1.7 0 1 0 3.3,0a1.7,1.7 0 1 0 -3.3,0ZM86.3,40a1.7,1.7 0 1 0 3.5,0a1.7,1.7 0 1 0 -3.5,0ZM93.2,40a1.8,1.8 0 1 0 3.5,0a1.8,1.8 0 1 0 -3.5,0ZM100.2,40a1.8,1.8 0 1 0 3.6,0a1.8,1.8 0 1 0 -3.6,0ZM107.2,40a1.8,1.8 0 1 0 3.5,0a1.8,1.8 0 1 0 -3.5,0ZM114.3,40a1.7,1.7 0 1 0 3.5,0a1.7,1.7 0 1 0 -3.5,0ZM121.3,40a1.7,1.7 0 1 0 3.4,0a1.7,1.7 0 1 0 -3.4,0ZM128.4,40a1.6,1.6 0 1 0 3.3,0a1.6,1.6 0 1 0 -3.3,0ZM135.4,40a1.6,1.6 0 1 0 3.1,0a1.6,1.6 0 1 0 -3.1,0ZM142.5,40a1.5,1.5 0 1 0 2.9,0a1.5,1.5 0 1 0 -2.9,0ZM149.6,40a1.4,1.4 0 1 0 2.7,0a1.4,1.4 0 1 0 -2.7,0ZM156.8,40a1.2,1.2 0 1 0 2.5,0a1.2,1.2 0 1 0 -2.5,0ZM163.9,40a1.1,1.1 0 1 0 2.3,0a1.1,1.1 0 1 0 -2.3,0ZM171,40a1,1 0 1 0 2,0a1,1 0 1 0 -2,0ZM178.1,40a0.9,0.9 0 1 0 1.7,0a0.9,0.9 0 1 0 -1.7,0ZM185.3,40a0.7,0.7 0 1 0 1.4,0a0.7,0.7 0 1 0 -1.4,0ZM192.4,40a0.6,0.6 0 1 0 1.1,0a0.6,0.6 0 1 0 -1.1,0ZM199.6,40a0.4,0.4 0 1 0 0.8,0a0.4,0.4 0 1 0 -0.8,0ZM41.3,47a1.2,1.2 0 1 0 2.5,0a1.2,1.2 0 1 0 -2.5,0ZM48.1,47a1.4,1.4 0 1 0 2.7,0a1.4,1.4 0 1 0 -2.7,0ZM55,47a1.5,1.5 0 1 0 3,0a1.5,1.5 0 1 0 -3,0ZM61.9,47a1.6,1.6 0 1 0 3.2,0a1.6,1.6 0 1 0 -3.2,0ZM68.8,47a1.7,1.7 0 1 0 3.4,0a1.7,1.7 0 1 0 -3.4,0ZM75.7,47a1.8,1.8 0 1 0 3.6,0a1.8,1.8 0 1 0 -3.6,0ZM82.6,47a1.9,1.9 0 1 0 3.7,0a1.9,1.9 0 1 0 -3.7,0ZM89.6,47a1.9,1.9 0 1 0 3.8,0a1.9,1.9 0 1 0 -3.8,0ZM96.5,47a2,2 0 1 0 3.9,0a2,2 0 1 0 -3.9,0ZM103.5,47a2,2 0 1 0 3.9,0a2,2 0 1 0 -3.9,0ZM110.6,47a1.9,1.9 0 1 0 3.9,0a1.9,1.9 0 1 0 -3.9,0ZM117.6,47a1.9,1.9 0 1 0 3.8,0a1.9,1.9 0 1 0 -3.8,0ZM124.7,47a1.8,1.8 0 1 0 3.7,0a1.8,1.8 0 1 0 -3.7,0ZM131.7,47a1.8,1.8 0 1 0 3.5,0a1.8,1.8 0 1 0 -3.5,0ZM138.8,47a1.7,1.7 0 1 0 3.3,0a1.7,1.7 0 1 0 -3.3,0ZM145.9,47a1.6,1.6 0 1 0 3.1,0a1.6,1.6 0 1 0 -3.1,0ZM153.1,47a1.4,1.4 0 1 0 2.9,0a1.4,1.4 0 1 0 -2.9,0ZM160.2,47a1.3,1.3 0 1 0 2.6,0a1.3,1.3 0 1 0 -2.6,0ZM167.3,47a1.2,1.2 0 1 0 2.4,0a1.2,1.2 0 1 0 -2.4,0ZM174.5,47a1,1 0 1 0 2.1,0a1,1 0 1 0 -2.1,0ZM181.6,47a0.9,0.9 0 1 0 1.8,0a0.9,0.9 0 1 0 -1.8,0ZM188.8,47a0.7,0.7 0 1 0 1.5,0a0.7,0.7 0 1 0 -1.5,0ZM195.9,47a0.6,0.6 0 1 0 1.2,0a0.6,0.6 0 1 0 -1.2,0ZM203.1,47a0.4,0.4 0 1 0 0.9,0a0.4,0.4 0 1 0 -0.9,0ZM44.6,54a1.4,1.4 0 1 0 2.9,0a1.4,1.4 0 1 0 -2.9,0ZM51.4,54a1.6,1.6 0 1 0 3.1,0a1.6,1.6 0 1 0 -3.1,0ZM58.3,54a1.7,1.7 0 1 0 3.4,0a1.7,1.7 0 1 0 -3.4,0ZM65.2,54a1.8,1.8 0 1 0 3.6,0a1.8,1.8 0 1 0 -3.6,0ZM72.1,54a1.9,1.9 0 1 0 3.8,0a1.9,1.9 0 1 0 -3.8,0ZM79,54a2,2 0 1 0 4,0a2,2 0 1 0 -4,0ZM85.9,54a2.1,2.1 0 1 0 4.2,0a2.1,2.1 0 1 0 -4.2,0ZM92.9,54a2.1,2.1 0 1 0 4.2,0a2.1,2.1 0 1 0 -4.2,0ZM99.9,54a2.1,2.1 0 1 0 4.3,0a2.1,2.1 0 1 0 -4.3,0ZM106.9,54a2.1,2.1 0 1 0 4.3,0a2.1,2.1 0 1 0 -4.3,0ZM113.9,54a2.1,2.1 0 1 0 4.2,0a2.1,2.1 0 1 0 -4.2,0ZM121,54a2,2 0 1 0 4.1,0a2,2 0 1 0 -4.1,0ZM128,54a2,2 0 1 0 3.9,0a2,2 0 1 0 -3.9,0ZM135.1,54a1.9,1.9 0 1 0 3.8,0a1.9,1.9 0 1 0 -3.8,0ZM142.2,54a1.8,1.8 0 1 0 3.5,0a1.8,1.8 0 1 0 -3.5,0ZM149.4,54a1.6,1.6 0 1 0 3.3,0a1.6,1.6 0 1 0 -3.3,0ZM156.5,54a1.5,1.5 0 1 0 3,0a1.5,1.5 0 1 0 -3,0ZM163.6,54a1.4,1.4 0 1 0 2.7,0a1.4,1.4 0 1 0 -2.7,0ZM170.8,54a1.2,1.2 0 1 0 2.4,0a1.2,1.2 0 1 0 -2.4,0ZM177.9,54a1.1,1.1 0 1 0 2.1,0a1.1,1.1 0 1 0 -2.1,0ZM185.1,54a0.9,0.9 0 1 0 1.8,0a0.9,0.9 0 1 0 -1.8,0ZM192.2,54a0.8,0.8 0 1 0 1.5,0a0.8,0.8 0 1 0 -1.5,0ZM199.4,54a0.6,0.6 0 1 0 1.2,0a0.6,0.6 0 1 0 -1.2,0ZM206.6,54a0.4,0.4 0 1 0 0.9,0a0.4,0.4 0 1 0 -0.9,0ZM41,61a1.5,1.5 0 1 0 2.9,0a1.5,1.5 0 1 0 -2.9,0ZM47.9,61a1.6,1.6 0 1 0 3.2,0a1.6,1.6 0 1 0 -3.2,0ZM54.7,61a1.8,1.8 0 1 0 3.5,0a1.8,1.8 0 1 0 -3.5,0ZM61.6,61a1.9,1.9 0 1 0 3.8,0a1.9,1.9 0 1 0 -3.8,0ZM68.5,61a2,2 0 1 0 4,0a2,2 0 1 0 -4,0ZM75.4,61a2.1,2.1 0 1 0 4.2,0a2.1,2.1 0 1 0 -4.2,0ZM82.3,61a2.2,2.2 0 1 0 4.4,0a2.2,2.2 0 1 0 -4.4,0ZM89.2,61a2.3,2.3 0 1 0 4.6,0a2.3,2.3 0 1 0 -4.6,0ZM96.2,61a2.3,2.3 0 1 0 4.6,0a2.3,2.3 0 1 0 -4.6,0ZM103.2,61a2.3,2.3 0 1 0 4.7,0a2.3,2.3 0 1 0 -4.7,0ZM110.2,61a2.3,2.3 0 1 0 4.6,0a2.3,2.3 0 1 0 -4.6,0ZM117.2,61a2.3,2.3 0 1 0 4.5,0a2.3,2.3 0 1 0 -4.5,0ZM124.3,61a2.2,2.2 0 1 0 4.4,0a2.2,2.2 0 1 0 -4.4,0ZM131.4,61a2.1,2.1 0 1 0 4.2,0a2.1,2.1 0 1 0 -4.2,0ZM138.5,61a2,2 0 1 0 3.9,0a2,2 0 1 0 -3.9,0ZM145.7,61a1.8,1.8 0 1 0 3.7,0a1.8,1.8 0 1 0 -3.7,0ZM152.8,61a1.7,1.7 0 1 0 3.4,0a1.7,1.7 0 1 0 -3.4,0ZM159.9,61a1.6,1.6 0 1 0 3.1,0a1.6,1.6 0 1 0 -3.1,0ZM167.1,61a1.4,1.4 0 1 0 2.8,0a1.4,1.4 0 1 0 -2.8,0ZM174.3,61a1.2,1.2 0 1 0 2.5,0a1.2,1.2 0 1 0 -2.5,0ZM181.4,61a1.1,1.1 0 1 0 2.2,0a1.1,1.1 0 1 0 -2.2,0ZM188.6,61a0.9,0.9 0 1 0 1.8,0a0.9,0.9 0 1 0 -1.8,0ZM195.7,61a0.8,0.8 0 1 0 1.5,0a0.8,0.8 0 1 0 -1.5,0ZM202.9,61a0.6,0.6 0 1 0 1.2,0a0.6,0.6 0 1 0 -1.2,0ZM210.1,61a0.4,0.4 0 1 0 0.8,0a0.4,0.4 0 1 0 -0.8,0ZM44.4,68a1.6,1.6 0 1 0 3.3,0a1.6,1.6 0 1 0 -3.3,0ZM51.2,68a1.8,1.8 0 1 0 3.6,0a1.8,1.8 0 1 0 -3.6,0ZM58.1,68a1.9,1.9 0 1 0 3.9,0a1.9,1.9 0 1 0 -3.9,0ZM64.9,68a2.1,2.1 0 1 0 4.2,0a2.1,2.1 0 1 0 -4.2,0ZM71.8,68a2.2,2.2 0 1 0 4.4,0a2.2,2.2 0 1 0 -4.4,0ZM78.7,68a2.3,2.3 0 1 0 4.7,0a2.3,2.3 0 1 0 -4.7,0ZM85.6,68a2.4,2.4 0 1 0 4.8,0a2.4,2.4 0 1 0 -4.8,0ZM92.5,68a2.5,2.5 0 1 0 5,0a2.5,2.5 0 1 0 -5,0ZM99.5,68a2.5,2.5 0 1 0 5,0a2.5,2.5 0 1 0 -5,0ZM106.5,68a2.5,2.5 0 1 0 5,0a2.5,2.5 0 1 0 -5,0ZM113.5,68a2.5,2.5 0 1 0 4.9,0a2.5,2.5 0 1 0 -4.9,0ZM120.6,68a2.4,2.4 0 1 0 4.8,0a2.4,2.4 0 1 0 -4.8,0ZM127.7,68a2.3,2.3 0 1 0 4.6,0a2.3,2.3 0 1 0 -4.6,0ZM134.8,68a2.2,2.2 0 1 0 4.3,0a2.2,2.2 0 1 0 -4.3,0ZM142,68a2,2 0 1 0 4.1,0a2,2 0 1 0 -4.1,0ZM149.1,68a1.9,1.9 0 1 0 3.8,0a1.9,1.9 0 1 0 -3.8,0ZM156.3,68a1.7,1.7 0 1 0 3.5,0a1.7,1.7 0 1 0 -3.5,0ZM163.4,68a1.6,1.6 0 1 0 3.1,0a1.6,1.6 0 1 0 -3.1,0ZM170.6,68a1.4,1.4 0 1 0 2.8,0a1.4,1.4 0 1 0 -2.8,0ZM177.8,68a1.2,1.2 0 1 0 2.5,0a1.2,1.2 0 1 0 -2.5,0ZM184.9,68a1.1,1.1 0 1 0 2.2,0a1.1,1.1 0 1 0 -2.2,0ZM192.1,68a0.9,0.9 0 1 0 1.8,0a0.9,0.9 0 1 0 -1.8,0ZM199.3,68a0.7,0.7 0 1 0 1.5,0a0.7,0.7 0 1 0 -1.5,0ZM206.4,68a0.6,0.6 0 1 0 1.1,0a0.6,0.6 0 1 0 -1.1,0ZM213.6,68a0.4,0.4 0 1 0 0.8,0a0.4,0.4 0 1 0 -0.8,0ZM40.9,75a1.6,1.6 0 1 0 3.3,0a1.6,1.6 0 1 0 -3.3,0ZM47.7,75a1.8,1.8 0 1 0 3.6,0a1.8,1.8 0 1 0 -3.6,0ZM54.5,75a2,2 0 1 0 3.9,0a2,2 0 1 0 -3.9,0ZM61.4,75a2.1,2.1 0 1 0 4.3,0a2.1,2.1 0 1 0 -4.3,0ZM68.2,75a2.3,2.3 0 1 0 4.5,0a2.3,2.3 0 1 0 -4.5,0ZM75.1,75a2.4,2.4 0 1 0 4.8,0a2.4,2.4 0 1 0 -4.8,0ZM82,75a2.5,2.5 0 1 0 5.1,0a2.5,2.5 0 1 0 -5.1,0ZM88.9,75a2.6,2.6 0 1 0 5.2,0a2.6,2.6 0 1 0 -5.2,0ZM95.8,75a2.7,2.7 0 1 0 5.4,0a2.7,2.7 0 1 0 -5.4,0ZM102.8,75a2.7,2.7 0 1 0 5.4,0a2.7,2.7 0 1 0 -5.4,0ZM109.8,75a2.7,2.7 0 1 0 5.3,0a2.7,2.7 0 1 0 -5.3,0ZM116.9,75a2.6,2.6 0 1 0 5.2,0a2.6,2.6 0 1 0 -5.2,0ZM124,75a2.5,2.5 0 1 0 5,0a2.5,2.5 0 1 0 -5,0ZM131.1,75a2.4,2.4 0 1 0 4.7,0a2.4,2.4 0 1 0 -4.7,0ZM138.3,75a2.2,2.2 0 1 0 4.4,0a2.2,2.2 0 1 0 -4.4,0ZM145.4,75a2.1,2.1 0 1 0 4.1,0a2.1,2.1 0 1 0 -4.1,0ZM152.6,75a1.9,1.9 0 1 0 3.8,0a1.9,1.9 0 1 0 -3.8,0ZM159.8,75a1.7,1.7 0 1 0 3.5,0a1.7,1.7 0 1 0 -3.5,0ZM166.9,75a1.6,1.6 0 1 0 3.1,0a1.6,1.6 0 1 0 -3.1,0ZM174.1,75a1.4,1.4 0 1 0 2.8,0a1.4,1.4 0 1 0 -2.8,0ZM181.3,75a1.2,1.2 0 1 0 2.5,0a1.2,1.2 0 1 0 -2.5,0ZM188.4,75a1.1,1.1 0 1 0 2.1,0a1.1,1.1 0 1 0 -2.1,0ZM195.6,75a0.9,0.9 0 1 0 1.8,0a0.9,0.9 0 1 0 -1.8,0ZM202.8,75a0.7,0.7 0 1 0 1.4,0a0.7,0.7 0 1 0 -1.4,0ZM210,75a0.5,0.5 0 1 0 1.1,0a0.5,0.5 0 1 0 -1.1,0ZM44.2,82a1.8,1.8 0 1 0 3.6,0a1.8,1.8 0 1 0 -3.6,0ZM51,82a2,2 0 1 0 3.9,0a2,2 0 1 0 -3.9,0ZM57.9,82a2.1,2.1 0 1 0 4.3,0a2.1,2.1 0 1 0 -4.3,0ZM64.7,82a2.3,2.3 0 1 0 4.6,0a2.3,2.3 0 1 0 -4.6,0ZM71.5,82a2.5,2.5 0 1 0 4.9,0a2.5,2.5 0 1 0 -4.9,0ZM78.4,82a2.6,2.6 0 1 0 5.2,0a2.6,2.6 0 1 0 -5.2,0ZM85.3,82a2.7,2.7 0 1 0 5.5,0a2.7,2.7 0 1 0 -5.5,0ZM92.2,82a2.8,2.8 0 1 0 5.7,0a2.8,2.8 0 1 0 -5.7,0ZM99.1,82a2.9,2.9 0 1 0 5.7,0a2.9,2.9 0 1 0 -5.7,0ZM106.1,82a2.9,2.9 0 1 0 5.7,0a2.9,2.9 0 1 0 -5.7,0ZM113.2,82a2.8,2.8 0 1 0 5.6,0a2.8,2.8 0 1 0 -5.6,0ZM120.3,82a2.7,2.7 0 1 0 5.4,0a2.7,2.7 0 1 0 -5.4,0ZM127.5,82a2.5,2.5 0 1 0 5.1,0a2.5,2.5 0 1 0 -5.1,0ZM134.6,82a2.4,2.4 0 1 0 4.8,0a2.4,2.4 0 1 0 -4.8,0ZM141.8,82a2.2,2.2 0 1 0 4.5,0a2.2,2.2 0 1 0 -4.5,0ZM148.9,82a2.1,2.1 0 1 0 4.1,0a2.1,2.1 0 1 0 -4.1,0ZM156.1,82a1.9,1.9 0 1 0 3.8,0a1.9,1.9 0 1 0 -3.8,0ZM163.3,82a1.7,1.7 0 1 0 3.4,0a1.7,1.7 0 1 0 -3.4,0ZM170.5,82a1.5,1.5 0 1 0 3.1,0a1.5,1.5 0 1 0 -3.1,0ZM177.6,82a1.4,1.4 0 1 0 2.7,0a1.4,1.4 0 1 0 -2.7,0ZM184.8,82a1.2,1.2 0 1 0 2.4,0a1.2,1.2 0 1 0 -2.4,0ZM192,82a1,1 0 1 0 2,0a1,1 0 1 0 -2,0ZM199.2,82a0.8,0.8 0 1 0 1.7,0a0.8,0.8 0 1 0 -1.7,0ZM206.3,82a0.7,0.7 0 1 0 1.3,0a0.7,0.7 0 1 0 -1.3,0ZM213.5,82a0.5,0.5 0 1 0 1,0a0.5,0.5 0 1 0 -1,0ZM40.7,89a1.8,1.8 0 1 0 3.5,0a1.8,1.8 0 1 0 -3.5,0ZM47.6,89a1.9,1.9 0 1 0 3.9,0a1.9,1.9 0 1 0 -3.9,0ZM54.4,89a2.1,2.1 0 1 0 4.2,0a2.1,2.1 0 1 0 -4.2,0ZM61.2,89a2.3,2.3 0 1 0 4.6,0a2.3,2.3 0 1 0 -4.6,0ZM68,89a2.5,2.5 0 1 0 4.9,0a2.5,2.5 0 1 0 -4.9,0ZM74.9,89a2.6,2.6 0 1 0 5.3,0a2.6,2.6 0 1 0 -5.3,0ZM81.7,89a2.8,2.8 0 1 0 5.6,0a2.8,2.8 0 1 0 -5.6,0ZM88.6,89a2.9,2.9 0 1 0 5.9,0a2.9,2.9 0 1 0 -5.9,0ZM95.5,89a3,3 0 1 0 6.1,0a3,3 0 1 0 -6.1,0ZM102.4,89a3.1,3.1 0 1 0 6.1,0a3.1,3.1 0 1 0 -6.1,0ZM109.5,89a3,3 0 1 0 6,0a3,3 0 1 0 -6,0ZM116.6,89a2.9,2.9 0 1 0 5.7,0a2.9,2.9 0 1 0 -5.7,0ZM123.8,89a2.7,2.7 0 1 0 5.4,0a2.7,2.7 0 1 0 -5.4,0ZM130.9,89a2.6,2.6 0 1 0 5.1,0a2.6,2.6 0 1 0 -5.1,0ZM138.1,89a2.4,2.4 0 1 0 4.8,0a2.4,2.4 0 1 0 -4.8,0ZM145.3,89a2.2,2.2 0 1 0 4.4,0a2.2,2.2 0 1 0 -4.4,0ZM152.5,89a2,2 0 1 0 4.1,0a2,2 0 1 0 -4.1,0ZM159.6,89a1.9,1.9 0 1 0 3.7,0a1.9,1.9 0 1 0 -3.7,0ZM166.8,89a1.7,1.7 0 1 0 3.4,0a1.7,1.7 0 1 0 -3.4,0ZM174,89a1.5,1.5 0 1 0 3,0a1.5,1.5 0 1 0 -3,0ZM181.2,89a1.3,1.3 0 1 0 2.6,0a1.3,1.3 0 1 0 -2.6,0ZM188.4,89a1.1,1.1 0 1 0 2.3,0a1.1,1.1 0 1 0 -2.3,0ZM195.5,89a1,1 0 1 0 1.9,0a1,1 0 1 0 -1.9,0ZM202.7,89a0.8,0.8 0 1 0 1.6,0a0.8,0.8 0 1 0 -1.6,0ZM209.9,89a0.6,0.6 0 1 0 1.2,0a0.6,0.6 0 1 0 -1.2,0ZM217.1,89a0.4,0.4 0 1 0 0.8,0a0.4,0.4 0 1 0 -0.8,0ZM44.1,96a1.9,1.9 0 1 0 3.7,0a1.9,1.9 0 1 0 -3.7,0ZM50.9,96a2.1,2.1 0 1 0 4.1,0a2.1,2.1 0 1 0 -4.1,0ZM57.8,96a2.2,2.2 0 1 0 4.5,0a2.2,2.2 0 1 0 -4.5,0ZM64.6,96a2.4,2.4 0 1 0 4.8,0a2.4,2.4 0 1 0 -4.8,0ZM71.4,96a2.6,2.6 0 1 0 5.2,0a2.6,2.6 0 1 0 -5.2,0ZM78.2,96a2.8,2.8 0 1 0 5.6,0a2.8,2.8 0 1 0 -5.6,0ZM85,96a3,3 0 1 0 5.9,0a3,3 0 1 0 -5.9,0ZM91.9,96a3.1,3.1 0 1 0 6.2,0a3.1,3.1 0 1 0 -6.2,0ZM98.8,96a3.2,3.2 0 1 0 6.5,0a3.2,3.2 0 1 0 -6.5,0ZM105.8,96a3.2,3.2 0 1 0 6.4,0a3.2,3.2 0 1 0 -6.4,0ZM113,96a3,3 0 1 0 6.1,0a3,3 0 1 0 -6.1,0ZM120.1,96a2.9,2.9 0 1 0 5.8,0a2.9,2.9 0 1 0 -5.8,0ZM127.3,96a2.7,2.7 0 1 0 5.4,0a2.7,2.7 0 1 0 -5.4,0ZM134.5,96a2.5,2.5 0 1 0 5,0a2.5,2.5 0 1 0 -5,0ZM141.7,96a2.3,2.3 0 1 0 4.7,0a2.3,2.3 0 1 0 -4.7,0ZM148.8,96a2.2,2.2 0 1 0 4.3,0a2.2,2.2 0 1 0 -4.3,0ZM156,96a2,2 0 1 0 4,0a2,2 0 1 0 -4,0ZM163.2,96a1.8,1.8 0 1 0 3.6,0a1.8,1.8 0 1 0 -3.6,0ZM170.4,96a1.6,1.6 0 1 0 3.2,0a1.6,1.6 0 1 0 -3.2,0ZM177.6,96a1.4,1.4 0 1 0 2.9,0a1.4,1.4 0 1 0 -2.9,0ZM184.8,96a1.2,1.2 0 1 0 2.5,0a1.2,1.2 0 1 0 -2.5,0ZM191.9,96a1.1,1.1 0 1 0 2.1,0a1.1,1.1 0 1 0 -2.1,0ZM199.1,96a0.9,0.9 0 1 0 1.8,0a0.9,0.9 0 1 0 -1.8,0ZM206.3,96a0.7,0.7 0 1 0 1.4,0a0.7,0.7 0 1 0 -1.4,0ZM213.5,96a0.5,0.5 0 1 0 1,0a0.5,0.5 0 1 0 -1,0ZM40.7,103a1.8,1.8 0 1 0 3.6,0a1.8,1.8 0 1 0 -3.6,0ZM47.5,103a2,2 0 1 0 3.9,0a2,2 0 1 0 -3.9,0ZM54.3,103a2.2,2.2 0 1 0 4.3,0a2.2,2.2 0 1 0 -4.3,0ZM61.2,103a2.3,2.3 0 1 0 4.7,0a2.3,2.3 0 1 0 -4.7,0ZM68,103a2.5,2.5 0 1 0 5,0a2.5,2.5 0 1 0 -5,0ZM74.8,103a2.7,2.7 0 1 0 5.4,0a2.7,2.7 0 1 0 -5.4,0ZM81.6,103a2.9,2.9 0 1 0 5.8,0a2.9,2.9 0 1 0 -5.8,0ZM88.4,103a3.1,3.1 0 1 0 6.1,0a3.1,3.1 0 1 0 -6.1,0ZM95.2,103a3.3,3.3 0 1 0 6.5,0a3.3,3.3 0 1 0 -6.5,0ZM102.1,103a3.4,3.4 0 1 0 6.7,0a3.4,3.4 0 1 0 -6.7,0ZM109.3,103a3.2,3.2 0 1 0 6.4,0a3.2,3.2 0 1 0 -6.4,0ZM116.5,103a3,3 0 1 0 6,0a3,3 0 1 0 -6,0ZM123.7,103a2.8,2.8 0 1 0 5.6,0a2.8,2.8 0 1 0 -5.6,0ZM130.9,103a2.6,2.6 0 1 0 5.3,0a2.6,2.6 0 1 0 -5.3,0ZM138.1,103a2.4,2.4 0 1 0 4.9,0a2.4,2.4 0 1 0 -4.9,0ZM145.2,103a2.3,2.3 0 1 0 4.5,0a2.3,2.3 0 1 0 -4.5,0ZM152.4,103a2.1,2.1 0 1 0 4.2,0a2.1,2.1 0 1 0 -4.2,0ZM159.6,103a1.9,1.9 0 1 0 3.8,0a1.9,1.9 0 1 0 -3.8,0ZM166.8,103a1.7,1.7 0 1 0 3.4,0a1.7,1.7 0 1 0 -3.4,0ZM174,103a1.5,1.5 0 1 0 3.1,0a1.5,1.5 0 1 0 -3.1,0ZM181.2,103a1.3,1.3 0 1 0 2.7,0a1.3,1.3 0 1 0 -2.7,0ZM188.3,103a1.2,1.2 0 1 0 2.3,0a1.2,1.2 0 1 0 -2.3,0ZM195.5,103a1,1 0 1 0 2,0a1,1 0 1 0 -2,0ZM202.7,103a0.8,0.8 0 1 0 1.6,0a0.8,0.8 0 1 0 -1.6,0ZM209.9,103a0.6,0.6 0 1 0 1.2,0a0.6,0.6 0 1 0 -1.2,0ZM217.1,103a0.4,0.4 0 1 0 0.9,0a0.4,0.4 0 1 0 -0.9,0ZM44.1,110a1.9,1.9 0 1 0 3.7,0a1.9,1.9 0 1 0 -3.7,0ZM51,110a2,2 0 1 0 4.1,0a2,2 0 1 0 -4.1,0ZM57.8,110a2.2,2.2 0 1 0 4.5,0a2.2,2.2 0 1 0 -4.5,0ZM64.6,110a2.4,2.4 0 1 0 4.8,0a2.4,2.4 0 1 0 -4.8,0ZM71.4,110a2.6,2.6 0 1 0 5.2,0a2.6,2.6 0 1 0 -5.2,0ZM78.2,110a2.8,2.8 0 1 0 5.5,0a2.8,2.8 0 1 0 -5.5,0ZM85.1,110a2.9,2.9 0 1 0 5.9,0a2.9,2.9 0 1 0 -5.9,0ZM91.9,110a3.1,3.1 0 1 0 6.2,0a3.1,3.1 0 1 0 -6.2,0ZM98.8,110a3.2,3.2 0 1 0 6.4,0a3.2,3.2 0 1 0 -6.4,0ZM105.8,110a3.2,3.2 0 1 0 6.3,0a3.2,3.2 0 1 0 -6.3,0ZM113,110a3,3 0 1 0 6,0a3,3 0 1 0 -6,0ZM120.1,110a2.9,2.9 0 1 0 5.7,0a2.9,2.9 0 1 0 -5.7,0ZM127.3,110a2.7,2.7 0 1 0 5.4,0a2.7,2.7 0 1 0 -5.4,0ZM134.5,110a2.5,2.5 0 1 0 5,0a2.5,2.5 0 1 0 -5,0ZM141.7,110a2.3,2.3 0 1 0 4.7,0a2.3,2.3 0 1 0 -4.7,0ZM148.8,110a2.2,2.2 0 1 0 4.3,0a2.2,2.2 0 1 0 -4.3,0ZM156,110a2,2 0 1 0 3.9,0a2,2 0 1 0 -3.9,0ZM163.2,110a1.8,1.8 0 1 0 3.6,0a1.8,1.8 0 1 0 -3.6,0ZM170.4,110a1.6,1.6 0 1 0 3.2,0a1.6,1.6 0 1 0 -3.2,0ZM177.6,110a1.4,1.4 0 1 0 2.9,0a1.4,1.4 0 1 0 -2.9,0ZM184.8,110a1.2,1.2 0 1 0 2.5,0a1.2,1.2 0 1 0 -2.5,0ZM191.9,110a1.1,1.1 0 1 0 2.1,0a1.1,1.1 0 1 0 -2.1,0ZM199.1,110a0.9,0.9 0 1 0 1.8,0a0.9,0.9 0 1 0 -1.8,0ZM206.3,110a0.7,0.7 0 1 0 1.4,0a0.7,0.7 0 1 0 -1.4,0ZM213.5,110a0.5,0.5 0 1 0 1,0a0.5,0.5 0 1 0 -1,0ZM40.8,117a1.7,1.7 0 1 0 3.5,0a1.7,1.7 0 1 0 -3.5,0ZM47.6,117a1.9,1.9 0 1 0 3.8,0a1.9,1.9 0 1 0 -3.8,0ZM54.4,117a2.1,2.1 0 1 0 4.2,0a2.1,2.1 0 1 0 -4.2,0ZM61.2,117a2.3,2.3 0 1 0 4.5,0a2.3,2.3 0 1 0 -4.5,0ZM68.1,117a2.4,2.4 0 1 0 4.9,0a2.4,2.4 0 1 0 -4.9,0ZM74.9,117a2.6,2.6 0 1 0 5.2,0a2.6,2.6 0 1 0 -5.2,0ZM81.7,117a2.8,2.8 0 1 0 5.5,0a2.8,2.8 0 1 0 -5.5,0ZM88.6,117a2.9,2.9 0 1 0 5.8,0a2.9,2.9 0 1 0 -5.8,0ZM95.5,117a3,3 0 1 0 6,0a3,3 0 1 0 -6,0ZM102.5,117a3,3 0 1 0 6,0a3,3 0 1 0 -6,0ZM109.6,117a2.9,2.9 0 1 0 5.9,0a2.9,2.9 0 1 0 -5.9,0ZM116.7,117a2.8,2.8 0 1 0 5.7,0a2.8,2.8 0 1 0 -5.7,0ZM123.8,117a2.7,2.7 0 1 0 5.4,0a2.7,2.7 0 1 0 -5.4,0ZM131,117a2.5,2.5 0 1 0 5.1,0a2.5,2.5 0 1 0 -5.1,0ZM138.1,117a2.4,2.4 0 1 0 4.7,0a2.4,2.4 0 1 0 -4.7,0ZM145.3,117a2.2,2.2 0 1 0 4.4,0a2.2,2.2 0 1 0 -4.4,0ZM152.5,117a2,2 0 1 0 4,0a2,2 0 1 0 -4,0ZM159.7,117a1.8,1.8 0 1 0 3.7,0a1.8,1.8 0 1 0 -3.7,0ZM166.8,117a1.7,1.7 0 1 0 3.3,0a1.7,1.7 0 1 0 -3.3,0ZM174,117a1.5,1.5 0 1 0 3,0a1.5,1.5 0 1 0 -3,0ZM181.2,117a1.3,1.3 0 1 0 2.6,0a1.3,1.3 0 1 0 -2.6,0ZM188.4,117a1.1,1.1 0 1 0 2.3,0a1.1,1.1 0 1 0 -2.3,0ZM195.6,117a0.9,0.9 0 1 0 1.9,0a0.9,0.9 0 1 0 -1.9,0ZM202.7,117a0.8,0.8 0 1 0 1.5,0a0.8,0.8 0 1 0 -1.5,0ZM209.9,117a0.6,0.6 0 1 0 1.2,0a0.6,0.6 0 1 0 -1.2,0ZM217.1,117a0.4,0.4 0 1 0 0.8,0a0.4,0.4 0 1 0 -0.8,0ZM44.2,124a1.8,1.8 0 1 0 3.6,0a1.8,1.8 0 1 0 -3.6,0ZM51.1,124a1.9,1.9 0 1 0 3.9,0a1.9,1.9 0 1 0 -3.9,0ZM57.9,124a2.1,2.1 0 1 0 4.2,0a2.1,2.1 0 1 0 -4.2,0ZM64.7,124a2.3,2.3 0 1 0 4.5,0a2.3,2.3 0 1 0 -4.5,0ZM71.6,124a2.4,2.4 0 1 0 4.9,0a2.4,2.4 0 1 0 -4.9,0ZM78.4,124a2.6,2.6 0 1 0 5.1,0a2.6,2.6 0 1 0 -5.1,0ZM85.3,124a2.7,2.7 0 1 0 5.4,0a2.7,2.7 0 1 0 -5.4,0ZM92.2,124a2.8,2.8 0 1 0 5.6,0a2.8,2.8 0 1 0 -5.6,0ZM99.2,124a2.8,2.8 0 1 0 5.6,0a2.8,2.8 0 1 0 -5.6,0ZM106.2,124a2.8,2.8 0 1 0 5.6,0a2.8,2.8 0 1 0 -5.6,0ZM113.3,124a2.7,2.7 0 1 0 5.5,0a2.7,2.7 0 1 0 -5.5,0ZM120.4,124a2.6,2.6 0 1 0 5.3,0a2.6,2.6 0 1 0 -5.3,0ZM127.5,124a2.5,2.5 0 1 0 5,0a2.5,2.5 0 1 0 -5,0ZM134.6,124a2.4,2.4 0 1 0 4.7,0a2.4,2.4 0 1 0 -4.7,0ZM141.8,124a2.2,2.2 0 1 0 4.4,0a2.2,2.2 0 1 0 -4.4,0ZM149,124a2,2 0 1 0 4.1,0a2,2 0 1 0 -4.1,0ZM156.1,124a1.9,1.9 0 1 0 3.7,0a1.9,1.9 0 1 0 -3.7,0ZM163.3,124a1.7,1.7 0 1 0 3.4,0a1.7,1.7 0 1 0 -3.4,0ZM170.5,124a1.5,1.5 0 1 0 3.1,0a1.5,1.5 0 1 0 -3.1,0ZM177.6,124a1.4,1.4 0 1 0 2.7,0a1.4,1.4 0 1 0 -2.7,0ZM184.8,124a1.2,1.2 0 1 0 2.4,0a1.2,1.2 0 1 0 -2.4,0ZM192,124a1,1 0 1 0 2,0a1,1 0 1 0 -2,0ZM199.2,124a0.8,0.8 0 1 0 1.6,0a0.8,0.8 0 1 0 -1.6,0ZM206.4,124a0.6,0.6 0 1 0 1.3,0a0.6,0.6 0 1 0 -1.3,0ZM213.5,124a0.5,0.5 0 1 0 0.9,0a0.5,0.5 0 1 0 -0.9,0ZM40.9,131a1.6,1.6 0 1 0 3.2,0a1.6,1.6 0 1 0 -3.2,0ZM47.7,131a1.8,1.8 0 1 0 3.6,0a1.8,1.8 0 1 0 -3.6,0ZM54.6,131a1.9,1.9 0 1 0 3.9,0a1.9,1.9 0 1 0 -3.9,0ZM61.4,131a2.1,2.1 0 1 0 4.2,0a2.1,2.1 0 1 0 -4.2,0ZM68.3,131a2.2,2.2 0 1 0 4.5,0a2.2,2.2 0 1 0 -4.5,0ZM75.1,131a2.4,2.4 0 1 0 4.7,0a2.4,2.4 0 1 0 -4.7,0ZM82,131a2.5,2.5 0 1 0 5,0a2.5,2.5 0 1 0 -5,0ZM88.9,131a2.6,2.6 0 1 0 5.1,0a2.6,2.6 0 1 0 -5.1,0ZM95.9,131a2.6,2.6 0 1 0 5.3,0a2.6,2.6 0 1 0 -5.3,0ZM102.9,131a2.6,2.6 0 1 0 5.3,0a2.6,2.6 0 1 0 -5.3,0ZM109.9,131a2.6,2.6 0 1 0 5.2,0a2.6,2.6 0 1 0 -5.2,0ZM117,131a2.5,2.5 0 1 0 5.1,0a2.5,2.5 0 1 0 -5.1,0ZM124.1,131a2.4,2.4 0 1 0 4.9,0a2.4,2.4 0 1 0 -4.9,0ZM131.2,131a2.3,2.3 0 1 0 4.6,0a2.3,2.3 0 1 0 -4.6,0ZM138.3,131a2.2,2.2 0 1 0 4.4,0a2.2,2.2 0 1 0 -4.4,0ZM145.5,131a2,2 0 1 0 4.1,0a2,2 0 1 0 -4.1,0ZM152.6,131a1.9,1.9 0 1 0 3.8,0a1.9,1.9 0 1 0 -3.8,0ZM159.8,131a1.7,1.7 0 1 0 3.4,0a1.7,1.7 0 1 0 -3.4,0ZM166.9,131a1.6,1.6 0 1 0 3.1,0a1.6,1.6 0 1 0 -3.1,0ZM174.1,131a1.4,1.4 0 1 0 2.8,0a1.4,1.4 0 1 0 -2.8,0ZM181.3,131a1.2,1.2 0 1 0 2.4,0a1.2,1.2 0 1 0 -2.4,0ZM188.5,131a1,1 0 1 0 2.1,0a1,1 0 1 0 -2.1,0ZM195.6,131a0.9,0.9 0 1 0 1.7,0a0.9,0.9 0 1 0 -1.7,0ZM202.8,131a0.7,0.7 0 1 0 1.4,0a0.7,0.7 0 1 0 -1.4,0ZM210,131a0.5,0.5 0 1 0 1,0a0.5,0.5 0 1 0 -1,0ZM44.4,138a1.6,1.6 0 1 0 3.2,0a1.6,1.6 0 1 0 -3.2,0ZM51.2,138a1.8,1.8 0 1 0 3.5,0a1.8,1.8 0 1 0 -3.5,0ZM58.1,138a1.9,1.9 0 1 0 3.8,0a1.9,1.9 0 1 0 -3.8,0ZM65,138a2,2 0 1 0 4.1,0a2,2 0 1 0 -4.1,0ZM71.8,138a2.2,2.2 0 1 0 4.3,0a2.2,2.2 0 1 0 -4.3,0ZM78.7,138a2.3,2.3 0 1 0 4.6,0a2.3,2.3 0 1 0 -4.6,0ZM85.6,138a2.4,2.4 0 1 0 4.7,0a2.4,2.4 0 1 0 -4.7,0ZM92.6,138a2.4,2.4 0 1 0 4.9,0a2.4,2.4 0 1 0 -4.9,0ZM99.5,138a2.5,2.5 0 1 0 4.9,0a2.5,2.5 0 1 0 -4.9,0ZM106.6,138a2.4,2.4 0 1 0 4.9,0a2.4,2.4 0 1 0 -4.9,0ZM113.6,138a2.4,2.4 0 1 0 4.8,0a2.4,2.4 0 1 0 -4.8,0ZM120.7,138a2.3,2.3 0 1 0 4.7,0a2.3,2.3 0 1 0 -4.7,0ZM127.8,138a2.2,2.2 0 1 0 4.5,0a2.2,2.2 0 1 0 -4.5,0ZM134.9,138a2.1,2.1 0 1 0 4.2,0a2.1,2.1 0 1 0 -4.2,0ZM142,138a2,2 0 1 0 4,0a2,2 0 1 0 -4,0ZM149.1,138a1.9,1.9 0 1 0 3.7,0a1.9,1.9 0 1 0 -3.7,0ZM156.3,138a1.7,1.7 0 1 0 3.4,0a1.7,1.7 0 1 0 -3.4,0ZM163.5,138a1.5,1.5 0 1 0 3.1,0a1.5,1.5 0 1 0 -3.1,0ZM170.6,138a1.4,1.4 0 1 0 2.8,0a1.4,1.4 0 1 0 -2.8,0ZM177.8,138a1.2,1.2 0 1 0 2.4,0a1.2,1.2 0 1 0 -2.4,0ZM184.9,138a1.1,1.1 0 1 0 2.1,0a1.1,1.1 0 1 0 -2.1,0ZM192.1,138a0.9,0.9 0 1 0 1.8,0a0.9,0.9 0 1 0 -1.8,0ZM199.3,138a0.7,0.7 0 1 0 1.4,0a0.7,0.7 0 1 0 -1.4,0ZM206.5,138a0.5,0.5 0 1 0 1.1,0a0.5,0.5 0 1 0 -1.1,0ZM213.6,138a0.4,0.4 0 1 0 0.7,0a0.4,0.4 0 1 0 -0.7,0ZM41.1,145a1.4,1.4 0 1 0 2.9,0a1.4,1.4 0 1 0 -2.9,0ZM47.9,145a1.6,1.6 0 1 0 3.2,0a1.6,1.6 0 1 0 -3.2,0ZM54.8,145a1.7,1.7 0 1 0 3.4,0a1.7,1.7 0 1 0 -3.4,0ZM61.6,145a1.9,1.9 0 1 0 3.7,0a1.9,1.9 0 1 0 -3.7,0ZM68.5,145a2,2 0 1 0 3.9,0a2,2 0 1 0 -3.9,0ZM75.4,145a2.1,2.1 0 1 0 4.2,0a2.1,2.1 0 1 0 -4.2,0ZM82.3,145a2.2,2.2 0 1 0 4.3,0a2.2,2.2 0 1 0 -4.3,0ZM89.3,145a2.2,2.2 0 1 0 4.5,0a2.2,2.2 0 1 0 -4.5,0ZM96.2,145a2.3,2.3 0 1 0 4.5,0a2.3,2.3 0 1 0 -4.5,0ZM103.2,145a2.3,2.3 0 1 0 4.5,0a2.3,2.3 0 1 0 -4.5,0ZM110.2,145a2.3,2.3 0 1 0 4.5,0a2.3,2.3 0 1 0 -4.5,0ZM117.3,145a2.2,2.2 0 1 0 4.4,0a2.2,2.2 0 1 0 -4.4,0ZM124.4,145a2.1,2.1 0 1 0 4.3,0a2.1,2.1 0 1 0 -4.3,0ZM131.5,145a2,2 0 1 0 4.1,0a2,2 0 1 0 -4.1,0ZM138.6,145a1.9,1.9 0 1 0 3.8,0a1.9,1.9 0 1 0 -3.8,0ZM145.7,145a1.8,1.8 0 1 0 3.6,0a1.8,1.8 0 1 0 -3.6,0ZM152.8,145a1.7,1.7 0 1 0 3.3,0a1.7,1.7 0 1 0 -3.3,0ZM160,145a1.5,1.5 0 1 0 3,0a1.5,1.5 0 1 0 -3,0ZM167.1,145a1.4,1.4 0 1 0 2.7,0a1.4,1.4 0 1 0 -2.7,0ZM174.3,145a1.2,1.2 0 1 0 2.4,0a1.2,1.2 0 1 0 -2.4,0ZM181.4,145a1.1,1.1 0 1 0 2.1,0a1.1,1.1 0 1 0 -2.1,0ZM188.6,145a0.9,0.9 0 1 0 1.8,0a0.9,0.9 0 1 0 -1.8,0ZM195.8,145a0.7,0.7 0 1 0 1.5,0a0.7,0.7 0 1 0 -1.5,0ZM202.9,145a0.6,0.6 0 1 0 1.1,0a0.6,0.6 0 1 0 -1.1,0ZM210.1,145a0.4,0.4 0 1 0 0.8,0a0.4,0.4 0 1 0 -0.8,0ZM44.6,152a1.4,1.4 0 1 0 2.8,0a1.4,1.4 0 1 0 -2.8,0ZM51.5,152a1.5,1.5 0 1 0 3.1,0a1.5,1.5 0 1 0 -3.1,0ZM58.3,152a1.7,1.7 0 1 0 3.3,0a1.7,1.7 0 1 0 -3.3,0ZM65.2,152a1.8,1.8 0 1 0 3.5,0a1.8,1.8 0 1 0 -3.5,0ZM72.1,152a1.9,1.9 0 1 0 3.7,0a1.9,1.9 0 1 0 -3.7,0ZM79,152a2,2 0 1 0 3.9,0a2,2 0 1 0 -3.9,0ZM86,152a2,2 0 1 0 4.1,0a2,2 0 1 0 -4.1,0ZM92.9,152a2.1,2.1 0 1 0 4.1,0a2.1,2.1 0 1 0 -4.1,0ZM99.9,152a2.1,2.1 0 1 0 4.2,0a2.1,2.1 0 1 0 -4.2,0ZM106.9,152a2.1,2.1 0 1 0 4.2,0a2.1,2.1 0 1 0 -4.2,0ZM113.9,152a2.1,2.1 0 1 0 4.1,0a2.1,2.1 0 1 0 -4.1,0ZM121,152a2,2 0 1 0 4,0a2,2 0 1 0 -4,0ZM128.1,152a1.9,1.9 0 1 0 3.9,0a1.9,1.9 0 1 0 -3.9,0ZM135.2,152a1.8,1.8 0 1 0 3.7,0a1.8,1.8 0 1 0 -3.7,0ZM142.3,152a1.7,1.7 0 1 0 3.5,0a1.7,1.7 0 1 0 -3.5,0ZM149.4,152a1.6,1.6 0 1 0 3.2,0a1.6,1.6 0 1 0 -3.2,0ZM156.5,152a1.5,1.5 0 1 0 3,0a1.5,1.5 0 1 0 -3,0ZM163.7,152a1.3,1.3 0 1 0 2.7,0a1.3,1.3 0 1 0 -2.7,0ZM170.8,152a1.2,1.2 0 1 0 2.4,0a1.2,1.2 0 1 0 -2.4,0ZM178,152a1,1 0 1 0 2.1,0a1,1 0 1 0 -2.1,0ZM185.1,152a0.9,0.9 0 1 0 1.8,0a0.9,0.9 0 1 0 -1.8,0ZM192.3,152a0.7,0.7 0 1 0 1.5,0a0.7,0.7 0 1 0 -1.5,0ZM199.4,152a0.6,0.6 0 1 0 1.1,0a0.6,0.6 0 1 0 -1.1,0ZM206.6,152a0.4,0.4 0 1 0 0.8,0a0.4,0.4 0 1 0 -0.8,0ZM41.3,159a1.2,1.2 0 1 0 2.4,0a1.2,1.2 0 1 0 -2.4,0ZM48.2,159a1.3,1.3 0 1 0 2.7,0a1.3,1.3 0 1 0 -2.7,0ZM55,159a1.5,1.5 0 1 0 2.9,0a1.5,1.5 0 1 0 -2.9,0ZM61.9,159a1.6,1.6 0 1 0 3.1,0a1.6,1.6 0 1 0 -3.1,0ZM68.8,159a1.7,1.7 0 1 0 3.3,0a1.7,1.7 0 1 0 -3.3,0ZM75.7,159a1.8,1.8 0 1 0 3.5,0a1.8,1.8 0 1 0 -3.5,0ZM82.7,159a1.8,1.8 0 1 0 3.6,0a1.8,1.8 0 1 0 -3.6,0ZM89.6,159a1.9,1.9 0 1 0 3.7,0a1.9,1.9 0 1 0 -3.7,0ZM96.6,159a1.9,1.9 0 1 0 3.8,0a1.9,1.9 0 1 0 -3.8,0ZM103.6,159a1.9,1.9 0 1 0 3.8,0a1.9,1.9 0 1 0 -3.8,0ZM110.6,159a1.9,1.9 0 1 0 3.8,0a1.9,1.9 0 1 0 -3.8,0ZM117.6,159a1.9,1.9 0 1 0 3.7,0a1.9,1.9 0 1 0 -3.7,0ZM124.7,159a1.8,1.8 0 1 0 3.6,0a1.8,1.8 0 1 0 -3.6,0ZM131.8,159a1.7,1.7 0 1 0 3.4,0a1.7,1.7 0 1 0 -3.4,0ZM138.9,159a1.6,1.6 0 1 0 3.3,0a1.6,1.6 0 1 0 -3.3,0ZM146,159a1.5,1.5 0 1 0 3,0a1.5,1.5 0 1 0 -3,0ZM153.1,159a1.4,1.4 0 1 0 2.8,0a1.4,1.4 0 1 0 -2.8,0ZM160.2,159a1.3,1.3 0 1 0 2.6,0a1.3,1.3 0 1 0 -2.6,0ZM167.4,159a1.1,1.1 0 1 0 2.3,0a1.1,1.1 0 1 0 -2.3,0ZM174.5,159a1,1 0 1 0 2,0a1,1 0 1 0 -2,0ZM181.6,159a0.9,0.9 0 1 0 1.7,0a0.9,0.9 0 1 0 -1.7,0ZM188.8,159a0.7,0.7 0 1 0 1.4,0a0.7,0.7 0 1 0 -1.4,0ZM195.9,159a0.6,0.6 0 1 0 1.1,0a0.6,0.6 0 1 0 -1.1,0ZM203.1,159a0.4,0.4 0 1 0 0.8,0a0.4,0.4 0 1 0 -0.8,0ZM44.9,166a1.1,1.1 0 1 0 2.3,0a1.1,1.1 0 1 0 -2.3,0ZM51.7,166a1.3,1.3 0 1 0 2.5,0a1.3,1.3 0 1 0 -2.5,0ZM58.6,166a1.4,1.4 0 1 0 2.7,0a1.4,1.4 0 1 0 -2.7,0ZM65.5,166a1.5,1.5 0 1 0 2.9,0a1.5,1.5 0 1 0 -2.9,0ZM72.4,166a1.6,1.6 0 1 0 3.1,0a1.6,1.6 0 1 0 -3.1,0ZM79.4,166a1.6,1.6 0 1 0 3.2,0a1.6,1.6 0 1 0 -3.2,0ZM86.3,166a1.7,1.7 0 1 0 3.3,0a1.7,1.7 0 1 0 -3.3,0ZM93.3,166a1.7,1.7 0 1 0 3.4,0a1.7,1.7 0 1 0 -3.4,0ZM100.3,166a1.7,1.7 0 1 0 3.5,0a1.7,1.7 0 1 0 -3.5,0ZM107.3,166a1.7,1.7 0 1 0 3.4,0a1.7,1.7 0 1 0 -3.4,0ZM114.3,166a1.7,1.7 0 1 0 3.4,0a1.7,1.7 0 1 0 -3.4,0ZM121.3,166a1.7,1.7 0 1 0 3.3,0a1.7,1.7 0 1 0 -3.3,0ZM128.4,166a1.6,1.6 0 1 0 3.2,0a1.6,1.6 0 1 0 -3.2,0ZM135.5,166a1.5,1.5 0 1 0 3,0a1.5,1.5 0 1 0 -3,0ZM142.6,166a1.4,1.4 0 1 0 2.9,0a1.4,1.4 0 1 0 -2.9,0ZM149.7,166a1.3,1.3 0 1 0 2.6,0a1.3,1.3 0 1 0 -2.6,0ZM156.8,166a1.2,1.2 0 1 0 2.4,0a1.2,1.2 0 1 0 -2.4,0ZM163.9,166a1.1,1.1 0 1 0 2.2,0a1.1,1.1 0 1 0 -2.2,0ZM171,166a1,1 0 1 0 1.9,0a1,1 0 1 0 -1.9,0ZM178.2,166a0.8,0.8 0 1 0 1.6,0a0.8,0.8 0 1 0 -1.6,0ZM185.3,166a0.7,0.7 0 1 0 1.4,0a0.7,0.7 0 1 0 -1.4,0ZM192.5,166a0.5,0.5 0 1 0 1.1,0a0.5,0.5 0 1 0 -1.1,0ZM199.6,166a0.4,0.4 0 1 0 0.8,0a0.4,0.4 0 1 0 -0.8,0ZM41.6,173a0.9,0.9 0 1 0 1.9,0a0.9,0.9 0 1 0 -1.9,0ZM48.4,173a1.1,1.1 0 1 0 2.1,0a1.1,1.1 0 1 0 -2.1,0ZM55.3,173a1.2,1.2 0 1 0 2.3,0a1.2,1.2 0 1 0 -2.3,0ZM62.2,173a1.3,1.3 0 1 0 2.5,0a1.3,1.3 0 1 0 -2.5,0ZM69.2,173a1.3,1.3 0 1 0 2.7,0a1.3,1.3 0 1 0 -2.7,0ZM76.1,173a1.4,1.4 0 1 0 2.8,0a1.4,1.4 0 1 0 -2.8,0ZM83,173a1.5,1.5 0 1 0 2.9,0a1.5,1.5 0 1 0 -2.9,0ZM90,173a1.5,1.5 0 1 0 3,0a1.5,1.5 0 1 0 -3,0ZM97,173a1.5,1.5 0 1 0 3.1,0a1.5,1.5 0 1 0 -3.1,0ZM104,173a1.5,1.5 0 1 0 3.1,0a1.5,1.5 0 1 0 -3.1,0ZM111,173a1.5,1.5 0 1 0 3.1,0a1.5,1.5 0 1 0 -3.1,0ZM118,173a1.5,1.5 0 1 0 3,0a1.5,1.5 0 1 0 -3,0ZM125,173a1.5,1.5 0 1 0 2.9,0a1.5,1.5 0 1 0 -2.9,0ZM132.1,173a1.4,1.4 0 1 0 2.8,0a1.4,1.4 0 1 0 -2.8,0ZM139.2,173a1.3,1.3 0 1 0 2.6,0a1.3,1.3 0 1 0 -2.6,0ZM146.3,173a1.2,1.2 0 1 0 2.4,0a1.2,1.2 0 1 0 -2.4,0ZM153.4,173a1.1,1.1 0 1 0 2.2,0a1.1,1.1 0 1 0 -2.2,0ZM160.5,173a1,1 0 1 0 2,0a1,1 0 1 0 -2,0ZM167.6,173a0.9,0.9 0 1 0 1.8,0a0.9,0.9 0 1 0 -1.8,0ZM174.7,173a0.8,0.8 0 1 0 1.5,0a0.8,0.8 0 1 0 -1.5,0ZM181.9,173a0.6,0.6 0 1 0 1.3,0a0.6,0.6 0 1 0 -1.3,0ZM189,173a0.5,0.5 0 1 0 1,0a0.5,0.5 0 1 0 -1,0ZM196.1,173a0.4,0.4 0 1 0 0.7,0a0.4,0.4 0 1 0 -0.7,0ZM45.1,180a0.9,0.9 0 1 0 1.7,0a0.9,0.9 0 1 0 -1.7,0ZM52,180a1,1 0 1 0 1.9,0a1,1 0 1 0 -1.9,0ZM58.9,180a1.1,1.1 0 1 0 2.1,0a1.1,1.1 0 1 0 -2.1,0ZM65.9,180a1.1,1.1 0 1 0 2.3,0a1.1,1.1 0 1 0 -2.3,0ZM72.8,180a1.2,1.2 0 1 0 2.4,0a1.2,1.2 0 1 0 -2.4,0ZM79.7,180a1.3,1.3 0 1 0 2.5,0a1.3,1.3 0 1 0 -2.5,0ZM86.7,180a1.3,1.3 0 1 0 2.6,0a1.3,1.3 0 1 0 -2.6,0ZM93.7,180a1.3,1.3 0 1 0 2.7,0a1.3,1.3 0 1 0 -2.7,0ZM100.6,180a1.4,1.4 0 1 0 2.7,0a1.4,1.4 0 1 0 -2.7,0ZM107.6,180a1.4,1.4 0 1 0 2.7,0a1.4,1.4 0 1 0 -2.7,0ZM114.7,180a1.3,1.3 0 1 0 2.7,0a1.3,1.3 0 1 0 -2.7,0ZM121.7,180a1.3,1.3 0 1 0 2.6,0a1.3,1.3 0 1 0 -2.6,0ZM128.8,180a1.2,1.2 0 1 0 2.5,0a1.2,1.2 0 1 0 -2.5,0ZM135.8,180a1.2,1.2 0 1 0 2.4,0a1.2,1.2 0 1 0 -2.4,0ZM142.9,180a1.1,1.1 0 1 0 2.2,0a1.1,1.1 0 1 0 -2.2,0ZM150,180a1,1 0 1 0 2,0a1,1 0 1 0 -2,0ZM157.1,180a0.9,0.9 0 1 0 1.8,0a0.9,0.9 0 1 0 -1.8,0ZM164.2,180a0.8,0.8 0 1 0 1.6,0a0.8,0.8 0 1 0 -1.6,0ZM171.3,180a0.7,0.7 0 1 0 1.4,0a0.7,0.7 0 1 0 -1.4,0ZM178.4,180a0.6,0.6 0 1 0 1.1,0a0.6,0.6 0 1 0 -1.1,0ZM185.6,180a0.4,0.4 0 1 0 0.9,0a0.4,0.4 0 1 0 -0.9,0ZM41.8,187a0.7,0.7 0 1 0 1.3,0a0.7,0.7 0 1 0 -1.3,0ZM48.7,187a0.8,0.8 0 1 0 1.5,0a0.8,0.8 0 1 0 -1.5,0ZM55.6,187a0.9,0.9 0 1 0 1.7,0a0.9,0.9 0 1 0 -1.7,0ZM62.6,187a0.9,0.9 0 1 0 1.9,0a0.9,0.9 0 1 0 -1.9,0ZM69.5,187a1,1 0 1 0 2,0a1,1 0 1 0 -2,0ZM76.4,187a1.1,1.1 0 1 0 2.1,0a1.1,1.1 0 1 0 -2.1,0ZM83.4,187a1.1,1.1 0 1 0 2.2,0a1.1,1.1 0 1 0 -2.2,0ZM90.3,187a1.2,1.2 0 1 0 2.3,0a1.2,1.2 0 1 0 -2.3,0ZM97.3,187a1.2,1.2 0 1 0 2.3,0a1.2,1.2 0 1 0 -2.3,0ZM104.3,187a1.2,1.2 0 1 0 2.4,0a1.2,1.2 0 1 0 -2.4,0ZM111.3,187a1.2,1.2 0 1 0 2.3,0a1.2,1.2 0 1 0 -2.3,0ZM118.4,187a1.1,1.1 0 1 0 2.3,0a1.1,1.1 0 1 0 -2.3,0ZM125.4,187a1.1,1.1 0 1 0 2.2,0a1.1,1.1 0 1 0 -2.2,0ZM132.5,187a1,1 0 1 0 2.1,0a1,1 0 1 0 -2.1,0ZM139.5,187a1,1 0 1 0 2,0a1,1 0 1 0 -2,0ZM146.6,187a0.9,0.9 0 1 0 1.8,0a0.9,0.9 0 1 0 -1.8,0ZM153.7,187a0.8,0.8 0 1 0 1.6,0a0.8,0.8 0 1 0 -1.6,0ZM160.8,187a0.7,0.7 0 1 0 1.4,0a0.7,0.7 0 1 0 -1.4,0ZM167.9,187a0.6,0.6 0 1 0 1.2,0a0.6,0.6 0 1 0 -1.2,0ZM175,187a0.5,0.5 0 1 0 1,0a0.5,0.5 0 1 0 -1,0ZM182.1,187a0.4,0.4 0 1 0 0.7,0a0.4,0.4 0 1 0 -0.7,0ZM45.4,194a0.6,0.6 0 1 0 1.1,0a0.6,0.6 0 1 0 -1.1,0ZM52.4,194a0.6,0.6 0 1 0 1.3,0a0.6,0.6 0 1 0 -1.3,0ZM59.3,194a0.7,0.7 0 1 0 1.5,0a0.7,0.7 0 1 0 -1.5,0ZM66.2,194a0.8,0.8 0 1 0 1.6,0a0.8,0.8 0 1 0 -1.6,0ZM73.1,194a0.9,0.9 0 1 0 1.7,0a0.9,0.9 0 1 0 -1.7,0ZM80.1,194a0.9,0.9 0 1 0 1.8,0a0.9,0.9 0 1 0 -1.8,0ZM87,194a1,1 0 1 0 1.9,0a1,1 0 1 0 -1.9,0ZM94,194a1,1 0 1 0 2,0a1,1 0 1 0 -2,0ZM101,194a1,1 0 1 0 2,0a1,1 0 1 0 -2,0ZM108,194a1,1 0 1 0 2,0a1,1 0 1 0 -2,0ZM114.8,194a1.2,1.2 0 1 0 2.3,0a1.2,1.2 0 1 0 -2.3,0ZM121.7,194a1.3,1.3 0 1 0 2.6,0a1.3,1.3 0 1 0 -2.6,0ZM128.7,194a1.3,1.3 0 1 0 2.6,0a1.3,1.3 0 1 0 -2.6,0ZM135.9,194a1.1,1.1 0 1 0 2.3,0a1.1,1.1 0 1 0 -2.3,0ZM143.1,194a0.9,0.9 0 1 0 1.8,0a0.9,0.9 0 1 0 -1.8,0ZM150.3,194a0.7,0.7 0 1 0 1.4,0a0.7,0.7 0 1 0 -1.4,0ZM157.4,194a0.6,0.6 0 1 0 1.2,0a0.6,0.6 0 1 0 -1.2,0ZM164.5,194a0.5,0.5 0 1 0 1,0a0.5,0.5 0 1 0 -1,0ZM171.6,194a0.4,0.4 0 1 0 0.8,0a0.4,0.4 0 1 0 -0.8,0ZM42.1,201a0.4,0.4 0 1 0 0.7,0a0.4,0.4 0 1 0 -0.7,0ZM49.1,201a0.4,0.4 0 1 0 0.9,0a0.4,0.4 0 1 0 -0.9,0ZM56,201a0.5,0.5 0 1 0 1.1,0a0.5,0.5 0 1 0 -1.1,0ZM62.9,201a0.6,0.6 0 1 0 1.2,0a0.6,0.6 0 1 0 -1.2,0ZM69.8,201a0.7,0.7 0 1 0 1.3,0a0.7,0.7 0 1 0 -1.3,0ZM76.8,201a0.7,0.7 0 1 0 1.4,0a0.7,0.7 0 1 0 -1.4,0ZM83.7,201a0.8,0.8 0 1 0 1.5,0a0.8,0.8 0 1 0 -1.5,0ZM90.7,201a0.8,0.8 0 1 0 1.6,0a0.8,0.8 0 1 0 -1.6,0ZM97.7,201a0.8,0.8 0 1 0 1.6,0a0.8,0.8 0 1 0 -1.6,0ZM104.5,201a1,1 0 1 0 1.9,0a1,1 0 1 0 -1.9,0ZM111.2,201a1.3,1.3 0 1 0 2.6,0a1.3,1.3 0 1 0 -2.6,0ZM117.9,201a1.6,1.6 0 1 0 3.2,0a1.6,1.6 0 1 0 -3.2,0ZM124.8,201a1.7,1.7 0 1 0 3.4,0a1.7,1.7 0 1 0 -3.4,0ZM131.9,201a1.6,1.6 0 1 0 3.1,0a1.6,1.6 0 1 0 -3.1,0ZM139.2,201a1.3,1.3 0 1 0 2.5,0a1.3,1.3 0 1 0 -2.5,0ZM146.6,201a0.9,0.9 0 1 0 1.8,0a0.9,0.9 0 1 0 -1.8,0ZM153.9,201a0.6,0.6 0 1 0 1.1,0a0.6,0.6 0 1 0 -1.1,0ZM161.1,201a0.4,0.4 0 1 0 0.8,0a0.4,0.4 0 1 0 -0.8,0ZM59.6,208a0.4,0.4 0 1 0 0.8,0a0.4,0.4 0 1 0 -0.8,0ZM66.5,208a0.5,0.5 0 1 0 0.9,0a0.5,0.5 0 1 0 -0.9,0ZM73.5,208a0.5,0.5 0 1 0 1,0a0.5,0.5 0 1 0 -1,0ZM80.4,208a0.6,0.6 0 1 0 1.1,0a0.6,0.6 0 1 0 -1.1,0ZM87.4,208a0.6,0.6 0 1 0 1.2,0a0.6,0.6 0 1 0 -1.2,0ZM94.4,208a0.6,0.6 0 1 0 1.2,0a0.6,0.6 0 1 0 -1.2,0ZM101.1,208a0.9,0.9 0 1 0 1.8,0a0.9,0.9 0 1 0 -1.8,0ZM107.7,208a1.3,1.3 0 1 0 2.5,0a1.3,1.3 0 1 0 -2.5,0ZM114.4,208a1.6,1.6 0 1 0 3.3,0a1.6,1.6 0 1 0 -3.3,0ZM121,208a2,2 0 1 0 4,0a2,2 0 1 0 -4,0ZM128,208a2,2 0 1 0 3.9,0a2,2 0 1 0 -3.9,0ZM135.4,208a1.6,1.6 0 1 0 3.2,0a1.6,1.6 0 1 0 -3.2,0ZM142.8,208a1.2,1.2 0 1 0 2.4,0a1.2,1.2 0 1 0 -2.4,0ZM150.2,208a0.8,0.8 0 1 0 1.6,0a0.8,0.8 0 1 0 -1.6,0ZM157.6,208a0.4,0.4 0 1 0 0.9,0a0.4,0.4 0 1 0 -0.9,0ZM77.1,215a0.4,0.4 0 1 0 0.7,0a0.4,0.4 0 1 0 -0.7,0ZM84.1,215a0.4,0.4 0 1 0 0.8,0a0.4,0.4 0 1 0 -0.8,0ZM91.1,215a0.4,0.4 0 1 0 0.9,0a0.4,0.4 0 1 0 -0.9,0ZM97.8,215a0.7,0.7 0 1 0 1.3,0a0.7,0.7 0 1 0 -1.3,0ZM104.5,215a1,1 0 1 0 2.1,0a1,1 0 1 0 -2.1,0ZM111.1,215a1.4,1.4 0 1 0 2.8,0a1.4,1.4 0 1 0 -2.8,0ZM117.8,215a1.7,1.7 0 1 0 3.5,0a1.7,1.7 0 1 0 -3.5,0ZM124.6,215a1.9,1.9 0 1 0 3.8,0a1.9,1.9 0 1 0 -3.8,0ZM131.8,215a1.7,1.7 0 1 0 3.4,0a1.7,1.7 0 1 0 -3.4,0ZM139.1,215a1.4,1.4 0 1 0 2.7,0a1.4,1.4 0 1 0 -2.7,0ZM146.5,215a1,1 0 1 0 2,0a1,1 0 1 0 -2,0ZM153.9,215a0.6,0.6 0 1 0 1.2,0a0.6,0.6 0 1 0 -1.2,0ZM94.6,222a0.4,0.4 0 1 0 0.7,0a0.4,0.4 0 1 0 -0.7,0ZM101.3,222a0.7,0.7 0 1 0 1.4,0a0.7,0.7 0 1 0 -1.4,0ZM107.9,222a1.1,1.1 0 1 0 2.1,0a1.1,1.1 0 1 0 -2.1,0ZM114.7,222a1.3,1.3 0 1 0 2.7,0a1.3,1.3 0 1 0 -2.7,0ZM121.5,222a1.5,1.5 0 1 0 3,0a1.5,1.5 0 1 0 -3,0ZM128.5,222a1.5,1.5 0 1 0 3,0a1.5,1.5 0 1 0 -3,0ZM135.7,222a1.3,1.3 0 1 0 2.6,0a1.3,1.3 0 1 0 -2.6,0ZM143,222a1,1 0 1 0 2,0a1,1 0 1 0 -2,0ZM150.3,222a0.7,0.7 0 1 0 1.3,0a0.7,0.7 0 1 0 -1.3,0ZM98.1,229a0.4,0.4 0 1 0 0.7,0a0.4,0.4 0 1 0 -0.7,0ZM104.8,229a0.7,0.7 0 1 0 1.3,0a0.7,0.7 0 1 0 -1.3,0ZM111.6,229a0.9,0.9 0 1 0 1.8,0a0.9,0.9 0 1 0 -1.8,0ZM118.4,229a1.1,1.1 0 1 0 2.2,0a1.1,1.1 0 1 0 -2.2,0ZM125.3,229a1.2,1.2 0 1 0 2.3,0a1.2,1.2 0 1 0 -2.3,0ZM132.4,229a1.1,1.1 0 1 0 2.2,0a1.1,1.1 0 1 0 -2.2,0ZM139.6,229a0.9,0.9 0 1 0 1.8,0a0.9,0.9 0 1 0 -1.8,0ZM146.9,229a0.6,0.6 0 1 0 1.2,0a0.6,0.6 0 1 0 -1.2,0ZM108.5,236a0.5,0.5 0 1 0 1,0a0.5,0.5 0 1 0 -1,0ZM115.3,236a0.7,0.7 0 1 0 1.3,0a0.7,0.7 0 1 0 -1.3,0ZM122.2,236a0.8,0.8 0 1 0 1.5,0a0.8,0.8 0 1 0 -1.5,0ZM129.2,236a0.8,0.8 0 1 0 1.5,0a0.8,0.8 0 1 0 -1.5,0ZM136.4,236a0.6,0.6 0 1 0 1.3,0a0.6,0.6 0 1 0 -1.3,0ZM143.5,236a0.5,0.5 0 1 0 0.9,0a0.5,0.5 0 1 0 -0.9,0ZM119.1,243a0.4,0.4 0 1 0 0.7,0a0.4,0.4 0 1 0 -0.7,0ZM126.1,243a0.4,0.4 0 1 0 0.8,0a0.4,0.4 0 1 0 -0.8,0Z"/></g></g>
<rect x="0" y="0" width="500" height="700" fill="#fff" filter="url(#whitewolf-paper)"/>
</svg>
